<svg width="94" height="22" viewBox="0 0 94 22" fill="none" xmlns="http://www.w3.org/2000/svg">
<path d="M15.932 1.176C15.8013 2.76267 15.736 4.18133 15.736 5.432C15.736 6.30933 15.764 7.01867 15.82 7.56H15.176C14.8027 5.45067 14.2427 3.96667 13.496 3.108C12.7493 2.24933 11.704 1.82 10.36 1.82H9.436C8.85733 1.82 8.43733 1.86667 8.176 1.96C7.91467 2.05333 7.73733 2.24 7.644 2.52C7.55067 2.78133 7.504 3.21067 7.504 3.808V10.864H8.484C9.47333 10.864 10.22 10.5 10.724 9.772C11.2467 9.044 11.6107 8.176 11.816 7.168H12.46C12.404 7.952 12.376 8.82933 12.376 9.8V11.144C12.376 12.096 12.432 13.4213 12.544 15.12H11.9C11.508 12.656 10.3693 11.424 8.484 11.424H7.504V17.864C7.504 18.6107 7.57867 19.1613 7.728 19.516C7.896 19.852 8.176 20.076 8.568 20.188C8.97867 20.3 9.62267 20.3653 10.5 20.384V21C8.204 20.944 6.496 20.916 5.376 20.916C4.44267 20.916 3.26667 20.9347 1.848 20.972L0.952 21V20.44C1.568 20.4027 2.016 20.328 2.296 20.216C2.59467 20.104 2.79067 19.8893 2.884 19.572C2.996 19.2547 3.052 18.7413 3.052 18.032V4.144C3.052 3.43467 2.996 2.92133 2.884 2.604C2.79067 2.28667 2.59467 2.072 2.296 1.96C2.016 1.848 1.568 1.77333 0.952 1.736V1.176C2.968 1.232 6.01067 1.26 10.08 1.26C12.824 1.26 14.7747 1.232 15.932 1.176ZM26.3423 1.736C25.6703 1.77333 25.1756 1.848 24.8583 1.96C24.5596 2.072 24.3543 2.28667 24.2423 2.604C24.1303 2.92133 24.0743 3.43467 24.0743 4.144V18.368C24.0743 18.9653 24.121 19.404 24.2143 19.684C24.3076 19.9453 24.4663 20.1227 24.6903 20.216C24.933 20.3093 25.3156 20.356 25.8383 20.356H27.2103C28.4796 20.356 29.5716 19.7867 30.4863 18.648C31.4196 17.5093 32.0263 15.9973 32.3063 14.112H32.9503C32.8943 14.7467 32.8663 15.568 32.8663 16.576C32.8663 18.368 32.9316 19.8427 33.0623 21C31.793 20.944 29.6556 20.916 26.6503 20.916C22.581 20.916 19.5383 20.944 17.5223 21V20.44C18.1383 20.4027 18.5863 20.328 18.8663 20.216C19.165 20.104 19.361 19.8893 19.4543 19.572C19.5663 19.2547 19.6223 18.7413 19.6223 18.032V4.144C19.6223 3.43467 19.5663 2.92133 19.4543 2.604C19.361 2.28667 19.165 2.072 18.8663 1.96C18.5863 1.848 18.1383 1.77333 17.5223 1.736V1.176C18.4743 1.232 19.949 1.26 21.9463 1.26C23.8503 1.26 25.3156 1.232 26.3423 1.176V1.736ZM44.8035 0.783998C46.7822 0.783998 48.5088 1.18533 49.9835 1.988C51.4768 2.79067 52.6342 3.95733 53.4555 5.488C54.2768 7 54.6875 8.81067 54.6875 10.92C54.6875 12.9733 54.2675 14.7933 53.4275 16.38C52.5875 17.9667 51.4115 19.1987 49.8995 20.076C48.4062 20.9533 46.6982 21.392 44.7755 21.392C42.7968 21.392 41.0608 20.9907 39.5675 20.188C38.0928 19.3853 36.9448 18.228 36.1235 16.716C35.3022 15.1853 34.8915 13.3653 34.8915 11.256C34.8915 9.20267 35.3115 7.38267 36.1515 5.796C36.9915 4.20933 38.1582 2.97733 39.6515 2.1C41.1635 1.22267 42.8808 0.783998 44.8035 0.783998ZM44.6915 1.288C43.6648 1.288 42.7595 1.708 41.9755 2.548C41.1915 3.36933 40.5848 4.52667 40.1555 6.02C39.7448 7.51333 39.5395 9.22133 39.5395 11.144C39.5395 13.0853 39.7728 14.7933 40.2395 16.268C40.7248 17.7427 41.3688 18.8813 42.1715 19.684C42.9928 20.4867 43.8982 20.888 44.8875 20.888C45.9142 20.888 46.8195 20.4773 47.6035 19.656C48.3875 18.816 48.9848 17.6493 49.3955 16.156C49.8248 14.6627 50.0395 12.9547 50.0395 11.032C50.0395 9.09067 49.7968 7.38267 49.3115 5.908C48.8448 4.43333 48.2008 3.29467 47.3795 2.492C46.5768 1.68933 45.6808 1.288 44.6915 1.288ZM75.6079 19.768C75.1039 20.3467 74.5625 20.7573 73.9839 21C73.4052 21.2613 72.7052 21.392 71.8839 21.392C70.8012 21.392 69.9425 21.168 69.3079 20.72C68.6919 20.2533 68.2905 19.4693 68.1039 18.368L67.5999 15.568C67.3572 14.2053 67.0585 13.2067 66.7039 12.572C66.3679 11.9187 65.7985 11.592 64.9959 11.592H63.1759V18.032C63.1759 18.7413 63.2225 19.2547 63.3159 19.572C63.4279 19.8893 63.6239 20.104 63.9039 20.216C64.1839 20.328 64.6412 20.4027 65.2759 20.44V21C64.2679 20.944 62.8585 20.916 61.0479 20.916C59.0505 20.916 57.5759 20.944 56.6239 21V20.44C57.2399 20.4027 57.6879 20.328 57.9679 20.216C58.2665 20.104 58.4625 19.8893 58.5559 19.572C58.6679 19.2547 58.7239 18.7413 58.7239 18.032V4.144C58.7239 3.43467 58.6679 2.92133 58.5559 2.604C58.4625 2.28667 58.2665 2.072 57.9679 1.96C57.6879 1.848 57.2399 1.77333 56.6239 1.736V1.176C57.5759 1.232 58.9945 1.26 60.8799 1.26L63.9879 1.232C64.3612 1.21333 64.7905 1.204 65.2759 1.204C67.8519 1.204 69.7839 1.624 71.0719 2.464C72.3785 3.304 73.0319 4.508 73.0319 6.076C73.0319 7.40133 72.5465 8.568 71.5759 9.576C70.6052 10.584 68.9999 11.2187 66.7599 11.48C68.4399 11.6293 69.6905 11.9933 70.5119 12.572C71.3332 13.1507 71.8652 14.0187 72.1079 15.176L72.7519 18.06C72.9012 18.8067 73.0692 19.3293 73.2559 19.628C73.4612 19.9267 73.7412 20.076 74.0959 20.076C74.3199 20.0573 74.5065 20.0013 74.6559 19.908C74.8239 19.8147 75.0105 19.656 75.2159 19.432L75.6079 19.768ZM64.9119 1.736C64.4079 1.736 64.0345 1.80133 63.7919 1.932C63.5679 2.06267 63.4092 2.296 63.3159 2.632C63.2225 2.968 63.1759 3.472 63.1759 4.144V11.032H64.3799C65.9105 11.032 66.9559 10.6307 67.5159 9.828C68.0945 9.00667 68.3839 7.85867 68.3839 6.384C68.3839 4.85333 68.1132 3.696 67.5719 2.912C67.0305 2.128 66.1439 1.736 64.9119 1.736ZM92.1666 18.648C92.4093 19.264 92.6893 19.712 93.0066 19.992C93.3239 20.272 93.6319 20.4213 93.9306 20.44V21C92.8106 20.944 91.3919 20.916 89.6746 20.916C87.7706 20.916 86.3519 20.944 85.4186 21V20.44C86.1279 20.4027 86.6319 20.3187 86.9306 20.188C87.2293 20.0387 87.3786 19.7867 87.3786 19.432C87.3786 19.096 87.2666 18.648 87.0426 18.088L85.3626 13.496H79.2586L78.5306 15.428C78.0079 16.772 77.7466 17.808 77.7466 18.536C77.7466 19.2267 77.9519 19.712 78.3626 19.992C78.7919 20.2533 79.4173 20.4027 80.2386 20.44V21C78.9693 20.944 77.8119 20.916 76.7666 20.916C75.9079 20.916 75.1986 20.944 74.6386 21V20.44C75.5533 20.272 76.3559 19.292 77.0466 17.5L83.4306 1.12C83.6359 1.13867 83.9626 1.148 84.4106 1.148C84.8586 1.148 85.1759 1.13867 85.3626 1.12L92.1666 18.648ZM85.1666 12.936L82.3946 5.376L79.4826 12.936H85.1666Z" fill="white"/>
</svg>
