<svg width="0" height="0" class="hidden">
  <symbol fill="none" xmlns="http://www.w3.org/2000/svg" viewBox="0 0 408 408" id="down-chevron">
    <g clip-path="url(#clip0_70:54)">
      <path d="M386.258 91.567L203.718 273.512L21.179 91.567L0 112.815L203.718 315.87L407.437 112.815L386.258 91.567Z" fill="white"></path>
    </g>
    <defs>
      <clipPath id="clip0_70:54">
        <rect width="407.437" height="407.437" fill="white"></rect>
      </clipPath>
    </defs>
  </symbol>
  <symbol fill="none" xmlns="http://www.w3.org/2000/svg" viewBox="0 0 32 32" id="facebook">
    <g clip-path="url(#clip0_55:58)">
      <path d="M16 32.0001C24.8366 32.0001 32 24.8366 32 16.0001C32 7.16349 24.8366 4.57764e-05 16 4.57764e-05C7.16344 4.57764e-05 0 7.16349 0 16.0001C0 24.8366 7.16344 32.0001 16 32.0001Z" fill="white"></path>
      <path d="M21.2026 4.9111H17.6582C15.5548 4.9111 13.2153 5.79575 13.2153 8.84466C13.2256 9.90701 13.2153 10.9244 13.2153 12.0695H10.782V15.9416H13.2906V27.0887H17.9003V15.868H20.9428L21.2181 12.0586H17.8208C17.8208 12.0586 17.8284 10.364 17.8208 9.87191C17.8208 8.66705 19.0745 8.73605 19.15 8.73605C19.7465 8.73605 20.9065 8.73779 21.2043 8.73605V4.9111H21.2026Z" fill="#313848"></path>
    </g>
    <defs>
      <clipPath id="clip0_55:58">
        <rect width="32" height="32" fill="white"></rect>
      </clipPath>
    </defs>
  </symbol>
  <symbol fill="none" xmlns="http://www.w3.org/2000/svg" viewBox="0 0 32 32" id="instagram">
    <path d="M8.11436 31.8868C6.21131 31.8003 5.17752 31.4836 4.48991 31.2154C3.5788 30.8606 2.92924 30.4384 2.24543 29.7555C1.56163 29.0727 1.13841 28.4231 0.785568 27.512C0.517371 26.8244 0.200672 25.7906 0.114126 23.8875C0.019021 21.8304 0 21.2132 0 16.0014C0 10.7897 0.0209231 10.1734 0.113175 8.11436C0.199721 6.21131 0.518323 5.17942 0.784617 4.48991C1.13936 3.5788 1.56258 2.92924 2.24448 2.24448C2.92733 1.56163 3.5769 1.13746 4.48896 0.784617C5.17657 0.51642 6.21036 0.199721 8.11341 0.113175C10.1715 0.019021 10.7897 0 15.9995 0C21.2113 0 21.8276 0.0209231 23.8866 0.113175C25.7896 0.199721 26.8215 0.518323 27.511 0.784617C28.4221 1.13746 29.0717 1.56163 29.7555 2.24448C30.4393 2.92733 30.8606 3.57785 31.2154 4.48896C31.4836 5.17657 31.8003 6.21036 31.8868 8.11341C31.981 10.1724 32 10.7887 32 16.0005C32 21.2103 31.981 21.8285 31.8868 23.8875C31.8003 25.7906 31.4817 26.8244 31.2154 27.512C30.8606 28.4231 30.4384 29.0727 29.7555 29.7555C29.0727 30.4384 28.4221 30.8606 27.511 31.2154C26.8234 31.4836 25.7896 31.8003 23.8866 31.8868C21.8295 31.981 21.2113 32 15.9995 32C10.7897 32 10.1715 31.9819 8.11436 31.8868Z" fill="url(#paint0_radial_55:53)"></path>
    <path d="M8.11436 31.8868C6.21131 31.8003 5.17752 31.4836 4.48991 31.2154C3.5788 30.8606 2.92924 30.4384 2.24543 29.7555C1.56163 29.0727 1.13841 28.4231 0.785568 27.512C0.517371 26.8244 0.200672 25.7906 0.114126 23.8875C0.019021 21.8304 0 21.2132 0 16.0014C0 10.7897 0.0209231 10.1734 0.113175 8.11436C0.199721 6.21131 0.518323 5.17942 0.784617 4.48991C1.13936 3.5788 1.56258 2.92924 2.24448 2.24448C2.92733 1.56163 3.5769 1.13746 4.48896 0.784617C5.17657 0.51642 6.21036 0.199721 8.11341 0.113175C10.1715 0.019021 10.7897 0 15.9995 0C21.2113 0 21.8276 0.0209231 23.8866 0.113175C25.7896 0.199721 26.8215 0.518323 27.511 0.784617C28.4221 1.13746 29.0717 1.56163 29.7555 2.24448C30.4393 2.92733 30.8606 3.57785 31.2154 4.48896C31.4836 5.17657 31.8003 6.21036 31.8868 8.11341C31.981 10.1724 32 10.7887 32 16.0005C32 21.2103 31.981 21.8285 31.8868 23.8875C31.8003 25.7906 31.4817 26.8244 31.2154 27.512C30.8606 28.4231 30.4384 29.0727 29.7555 29.7555C29.0727 30.4384 28.4221 30.8606 27.511 31.2154C26.8234 31.4836 25.7896 31.8003 23.8866 31.8868C21.8295 31.981 21.2113 32 15.9995 32C10.7897 32 10.1715 31.9819 8.11436 31.8868Z" fill="white"></path>
    <path d="M12.0713 16.0683C12.0713 13.8798 13.8449 12.1052 16.0334 12.1052C18.2219 12.1052 19.9964 13.8798 19.9964 16.0683C19.9964 18.2567 18.2219 20.0313 16.0334 20.0313C13.8449 20.0313 12.0713 18.2567 12.0713 16.0683ZM9.92898 16.0683C9.92898 19.4397 12.6619 22.1727 16.0334 22.1727C19.4049 22.1727 22.1378 19.4397 22.1378 16.0683C22.1378 12.6968 19.4049 9.96387 16.0334 9.96387C12.6619 9.96387 9.92908 12.6966 9.92908 16.0683H9.92898ZM20.953 9.72183C20.9529 10.004 21.0364 10.2798 21.1931 10.5145C21.3498 10.7491 21.5725 10.9321 21.8331 11.0402C22.0937 11.1482 22.3806 11.1766 22.6573 11.1217C22.9341 11.0667 23.1883 10.931 23.3879 10.7315C23.5875 10.5321 23.7235 10.278 23.7786 10.0013C23.8338 9.72456 23.8056 9.43771 23.6978 9.177C23.5899 8.91628 23.4071 8.69341 23.1726 8.53656C22.9381 8.37971 22.6623 8.29594 22.3801 8.29582H22.3796C22.0014 8.296 21.6387 8.44628 21.3712 8.71365C21.1037 8.98102 20.9533 9.34363 20.953 9.72183ZM11.2306 25.745C10.0715 25.6922 9.44157 25.4991 9.02292 25.336C8.46788 25.12 8.07187 24.8626 7.6555 24.4468C7.23913 24.031 6.98139 23.6354 6.76626 23.0803C6.60306 22.6619 6.41 22.0317 6.35731 20.8727C6.29968 19.6196 6.28817 19.2432 6.28817 16.0685C6.28817 12.8938 6.30063 12.5184 6.35731 11.2642C6.41009 10.1052 6.60458 9.47626 6.76626 9.05657C6.98234 8.50153 7.2397 8.10552 7.6555 7.68915C8.07129 7.27278 8.46693 7.01505 9.02292 6.79992C9.44138 6.63672 10.0715 6.44366 11.2306 6.39097C12.4837 6.33333 12.8601 6.32183 16.0334 6.32183C19.2067 6.32183 19.5835 6.3341 20.8376 6.39116C21.9967 6.44394 22.6256 6.63843 23.0453 6.80011C23.6003 7.01524 23.9963 7.27354 24.4127 7.68934C24.8291 8.10514 25.0859 8.50172 25.3019 9.05676C25.4651 9.47522 25.6582 10.1054 25.7109 11.2644C25.7685 12.5186 25.78 12.894 25.78 16.0686C25.78 19.2433 25.7685 19.6187 25.7109 20.8729C25.6581 22.0319 25.4641 22.6619 25.3019 23.0805C25.0859 23.6356 24.8285 24.0316 24.4127 24.447C23.9969 24.8624 23.6003 25.1202 23.0453 25.3362C22.6268 25.4994 21.9967 25.6925 20.8376 25.7452C19.5845 25.8028 19.2081 25.8143 16.0334 25.8143C12.8587 25.8143 12.4833 25.8028 11.2306 25.7452V25.745ZM11.1322 4.25215C9.86659 4.30979 9.0018 4.51046 8.24657 4.80433C7.46491 5.10781 6.80231 5.51496 6.14066 6.17556C5.47902 6.83615 5.07292 7.49884 4.76944 8.28146C4.47556 9.03717 4.27489 9.90148 4.21726 11.167C4.15867 12.4346 4.14526 12.8398 4.14526 16.0683C4.14526 19.2967 4.15867 19.7019 4.21726 20.9695C4.27489 22.2352 4.47556 23.0994 4.76944 23.8551C5.07292 24.6367 5.47911 25.3007 6.14066 25.961C6.80221 26.6213 7.46395 27.0279 8.24657 27.3322C9.00323 27.6261 9.86659 27.8267 11.1322 27.8844C12.4004 27.942 12.805 27.9564 16.0334 27.9564C19.2618 27.9564 19.6671 27.943 20.9346 27.8844C22.2003 27.8267 23.0645 27.6261 23.8202 27.3322C24.6019 27.0279 25.2645 26.6216 25.9261 25.961C26.5878 25.3004 26.993 24.6367 27.2973 23.8551C27.5912 23.0994 27.7928 22.2351 27.8495 20.9695C27.9072 19.701 27.9206 19.2967 27.9206 16.0683C27.9206 12.8398 27.9072 12.4346 27.8495 11.167C27.7919 9.90138 27.5912 9.03669 27.2973 8.28146C26.993 7.4998 26.5867 6.8372 25.9261 6.17556C25.2655 5.51391 24.6019 5.10781 23.8212 4.80433C23.0645 4.51046 22.2002 4.30884 20.9356 4.25215C19.6678 4.19424 19.2628 4.18016 16.0348 4.18016C12.8069 4.18016 12.4009 4.19357 11.1326 4.25215" fill="#313848"></path>
    <defs>
      <radialGradient id="paint0_radial_55:53" cx="0" cy="0" r="1" gradientUnits="userSpaceOnUse" gradientTransform="translate(2.07101 31.299) scale(40.6281)">
        <stop offset="0.09" stop-color="#FA8F21"></stop>
        <stop offset="0.78" stop-color="#D82D7E"></stop>
      </radialGradient>
    </defs>
  </symbol>
  <symbol fill="none" xmlns="http://www.w3.org/2000/svg" viewBox="0 0 100 23" id="logo--accent">
    <path d="M16.3552 0.76C16.2152 2.46 16.1452 3.98 16.1452 5.32C16.1452 6.26 16.1752 7.02 16.2352 7.6H15.5452C15.1452 5.34 14.5452 3.75 13.7452 2.83C12.9452 1.91 11.8252 1.45 10.3852 1.45H9.39516C8.77516 1.45 8.32516 1.5 8.04516 1.6C7.76516 1.7 7.57516 1.9 7.47516 2.2C7.37516 2.48 7.32516 2.94 7.32516 3.58V11.14H8.37516C9.43516 11.14 10.2352 10.75 10.7752 9.97C11.3352 9.19 11.7252 8.26 11.9452 7.18H12.6352C12.5752 8.02 12.5452 8.96 12.5452 10V11.44C12.5452 12.46 12.6052 13.88 12.7252 15.7H12.0352C11.6152 13.06 10.3952 11.74 8.37516 11.74H7.32516V18.64C7.32516 19.44 7.40516 20.03 7.56516 20.41C7.74516 20.77 8.04516 21.01 8.46516 21.13C8.90516 21.25 9.59516 21.32 10.5352 21.34V22C8.07516 21.94 6.24516 21.91 5.04516 21.91C4.04516 21.91 2.78516 21.93 1.26516 21.97L0.305156 22V21.4C0.965156 21.36 1.44516 21.28 1.74516 21.16C2.06516 21.04 2.27516 20.81 2.37516 20.47C2.49516 20.13 2.55516 19.58 2.55516 18.82V3.94C2.55516 3.18 2.49516 2.63 2.37516 2.29C2.27516 1.95 2.06516 1.72 1.74516 1.6C1.44516 1.48 0.965156 1.4 0.305156 1.36V0.76C2.46516 0.819999 5.72516 0.849999 10.0852 0.849999C13.0252 0.849999 15.1152 0.819999 16.3552 0.76ZM27.5091 1.36C26.7891 1.4 26.2591 1.48 25.9191 1.6C25.5991 1.72 25.3791 1.95 25.2591 2.29C25.1391 2.63 25.0791 3.18 25.0791 3.94V19.18C25.0791 19.82 25.1291 20.29 25.2291 20.59C25.3291 20.87 25.4991 21.06 25.7391 21.16C25.9991 21.26 26.4091 21.31 26.9691 21.31H28.4391C29.7991 21.31 30.9691 20.7 31.9491 19.48C32.9491 18.26 33.5991 16.64 33.8991 14.62H34.5891C34.5291 15.3 34.4991 16.18 34.4991 17.26C34.4991 19.18 34.5691 20.76 34.7091 22C33.3491 21.94 31.0591 21.91 27.8391 21.91C23.4791 21.91 20.2191 21.94 18.0591 22V21.4C18.7191 21.36 19.1991 21.28 19.4991 21.16C19.8191 21.04 20.0291 20.81 20.1291 20.47C20.2491 20.13 20.3091 19.58 20.3091 18.82V3.94C20.3091 3.18 20.2491 2.63 20.1291 2.29C20.0291 1.95 19.8191 1.72 19.4991 1.6C19.1991 1.48 18.7191 1.4 18.0591 1.36V0.76C19.0791 0.819999 20.6591 0.849999 22.7991 0.849999C24.8391 0.849999 26.4091 0.819999 27.5091 0.76V1.36ZM47.2889 0.339998C49.4089 0.339998 51.2589 0.769999 52.8389 1.63C54.4389 2.49 55.6789 3.74 56.5589 5.38C57.4389 7 57.8789 8.94 57.8789 11.2C57.8789 13.4 57.4289 15.35 56.5289 17.05C55.6289 18.75 54.3689 20.07 52.7489 21.01C51.1489 21.95 49.3189 22.42 47.2589 22.42C45.1389 22.42 43.2789 21.99 41.6789 21.13C40.0989 20.27 38.8689 19.03 37.9889 17.41C37.1089 15.77 36.6689 13.82 36.6689 11.56C36.6689 9.36 37.1189 7.41 38.0189 5.71C38.9189 4.01 40.1689 2.69 41.7689 1.75C43.3889 0.809999 45.2289 0.339998 47.2889 0.339998ZM47.1689 0.879998C46.0689 0.879998 45.0989 1.33 44.2589 2.23C43.4189 3.11 42.7689 4.35 42.3089 5.95C41.8689 7.55 41.6489 9.38 41.6489 11.44C41.6489 13.52 41.8989 15.35 42.3989 16.93C42.9189 18.51 43.6089 19.73 44.4689 20.59C45.3489 21.45 46.3189 21.88 47.3789 21.88C48.4789 21.88 49.4489 21.44 50.2889 20.56C51.1289 19.66 51.7689 18.41 52.2089 16.81C52.6689 15.21 52.8989 13.38 52.8989 11.32C52.8989 9.24 52.6389 7.41 52.1189 5.83C51.6189 4.25 50.9289 3.03 50.0489 2.17C49.1889 1.31 48.2289 0.879998 47.1689 0.879998ZM80.2936 20.68C79.7536 21.3 79.1736 21.74 78.5536 22C77.9336 22.28 77.1836 22.42 76.3036 22.42C75.1436 22.42 74.2236 22.18 73.5436 21.7C72.8836 21.2 72.4536 20.36 72.2536 19.18L71.7136 16.18C71.4536 14.72 71.1336 13.65 70.7536 12.97C70.3936 12.27 69.7836 11.92 68.9236 11.92H66.9736V18.82C66.9736 19.58 67.0236 20.13 67.1236 20.47C67.2436 20.81 67.4536 21.04 67.7536 21.16C68.0536 21.28 68.5436 21.36 69.2236 21.4V22C68.1436 21.94 66.6336 21.91 64.6936 21.91C62.5536 21.91 60.9736 21.94 59.9536 22V21.4C60.6136 21.36 61.0936 21.28 61.3936 21.16C61.7136 21.04 61.9236 20.81 62.0236 20.47C62.1436 20.13 62.2036 19.58 62.2036 18.82V3.94C62.2036 3.18 62.1436 2.63 62.0236 2.29C61.9236 1.95 61.7136 1.72 61.3936 1.6C61.0936 1.48 60.6136 1.4 59.9536 1.36V0.76C60.9736 0.819999 62.4936 0.849999 64.5136 0.849999L67.8436 0.819999C68.2436 0.799999 68.7036 0.789999 69.2236 0.789999C71.9836 0.789999 74.0536 1.24 75.4336 2.14C76.8336 3.04 77.5336 4.33 77.5336 6.01C77.5336 7.43 77.0136 8.68 75.9736 9.76C74.9336 10.84 73.2136 11.52 70.8136 11.8C72.6136 11.96 73.9536 12.35 74.8336 12.97C75.7136 13.59 76.2836 14.52 76.5436 15.76L77.2336 18.85C77.3936 19.65 77.5736 20.21 77.7736 20.53C77.9936 20.85 78.2936 21.01 78.6736 21.01C78.9136 20.99 79.1136 20.93 79.2736 20.83C79.4536 20.73 79.6536 20.56 79.8736 20.32L80.2936 20.68ZM68.8336 1.36C68.2936 1.36 67.8936 1.43 67.6336 1.57C67.3936 1.71 67.2236 1.96 67.1236 2.32C67.0236 2.68 66.9736 3.22 66.9736 3.94V11.32H68.2636C69.9036 11.32 71.0236 10.89 71.6236 10.03C72.2436 9.15 72.5536 7.92 72.5536 6.34C72.5536 4.7 72.2636 3.46 71.6836 2.62C71.1036 1.78 70.1536 1.36 68.8336 1.36ZM98.0351 19.48C98.2951 20.14 98.5951 20.62 98.9351 20.92C99.2751 21.22 99.6051 21.38 99.9251 21.4V22C98.7251 21.94 97.2051 21.91 95.3651 21.91C93.3251 21.91 91.8051 21.94 90.8051 22V21.4C91.5651 21.36 92.1051 21.27 92.4251 21.13C92.7451 20.97 92.9051 20.7 92.9051 20.32C92.9051 19.96 92.7851 19.48 92.5451 18.88L90.7451 13.96H84.2051L83.4251 16.03C82.8651 17.47 82.5851 18.58 82.5851 19.36C82.5851 20.1 82.8051 20.62 83.2451 20.92C83.7051 21.2 84.3751 21.36 85.2551 21.4V22C83.8951 21.94 82.6551 21.91 81.5351 21.91C80.6151 21.91 79.8551 21.94 79.2551 22V21.4C80.2351 21.22 81.0951 20.17 81.8351 18.25L88.6751 0.699999C88.8951 0.719999 89.2451 0.729998 89.7251 0.729998C90.2051 0.729998 90.5451 0.719999 90.7451 0.699999L98.0351 19.48ZM90.5351 13.36L87.5651 5.26L84.4451 13.36H90.5351Z" fill="#F7C6E1"></path>
  </symbol>
  <symbol fill="none" xmlns="http://www.w3.org/2000/svg" viewBox="0 0 32 26" id="twitter">
    <path d="M10.0637 26C22.1397 26 28.7437 15.9981 28.7437 7.32472C28.7437 7.04067 28.7379 6.75792 28.7251 6.47634C30.0101 5.54679 31.119 4.39585 32 3.07749C30.8236 3.60035 29.5577 3.95226 28.2297 4.11092C29.5852 3.29836 30.6258 2.01285 31.1168 0.480545C29.828 1.24488 28.4181 1.78369 26.9478 2.07376C25.7498 0.79794 24.0442 0 22.1555 0C18.5299 0 15.5898 2.93943 15.5898 6.56272C15.5898 7.07785 15.6475 7.57874 15.7601 8.05935C10.3035 7.78485 5.46504 5.17302 2.22686 1.20159C1.64364 2.20326 1.33687 3.34169 1.33789 4.5006C1.33789 6.77781 2.49691 8.78806 4.25951 9.96417C3.21691 9.93234 2.1972 9.6508 1.28611 9.14322C1.28514 9.17078 1.28514 9.19763 1.28514 9.22707C1.28514 12.4058 3.54816 15.0598 6.55226 15.6612C5.98805 15.8148 5.40585 15.8924 4.82107 15.8921C4.39876 15.8921 3.98719 15.8506 3.58719 15.7738C4.42302 18.3817 6.8467 20.2795 9.72026 20.3326C7.47317 22.0934 4.64254 23.1421 1.56605 23.1421C1.0427 23.1426 0.519777 23.1122 0 23.0512C2.90563 24.9131 6.35577 25.9995 10.064 25.9995" fill="white"></path>
  </symbol>
</svg>